<svg width="25" height="24" viewBox="0 0 25 24" fill="none" xmlns="http://www.w3.org/2000/svg">
<g id="google-logo">
<path id="Vector" d="M22.85 12.2415C22.85 11.5275 22.7915 10.8105 22.6685 10.1085H12.7085V14.151H18.4115C18.2938 14.7979 18.0461 15.4142 17.6834 15.9626C17.3206 16.511 16.8503 16.9801 16.301 17.3415V19.9665H19.7045C21.7025 18.1365 22.85 15.4365 22.85 12.2415Z" fill="#4285F4"/>
<path id="Vector_2" d="M12.71 22.5C15.557 22.5 17.9585 21.57 19.7075 19.965L16.3055 17.3415C15.359 17.982 14.1365 18.345 12.713 18.345C9.959 18.345 7.6235 16.497 6.785 14.013H3.275V16.7175C4.1594 18.4593 5.50938 19.9219 7.17496 20.9427C8.84053 21.9635 10.7565 22.5026 12.71 22.5Z" fill="#34A853"/>
<path id="Vector_3" d="M6.7805 14.013C6.33817 12.7095 6.33817 11.2965 6.7805 9.99301V7.28851H3.2735C2.53496 8.75034 2.15019 10.3652 2.15019 12.003C2.15019 13.6408 2.53496 15.2557 3.2735 16.7175L6.7805 14.013Z" fill="#FBBC04"/>
<path id="Vector_4" d="M12.71 5.65499C14.2139 5.63061 15.6677 6.19595 16.76 7.23L19.775 4.23149C17.8588 2.44659 15.3285 1.46883 12.71 1.50149C10.756 1.49902 8.83953 2.03861 7.17384 3.06027C5.50816 4.08193 4.15851 5.54559 3.275 7.2885L6.779 9.98999C7.613 7.50299 9.953 5.65499 12.707 5.65499H12.71Z" fill="#EA4335"/>
</g>
</svg>
